<svg xmlns="http://www.w3.org/2000/svg" viewBox="0 0 64 64" role="img" aria-labelledby="title">
  <title id="title">Bitachon For Real</title>
  <rect width="64" height="64" rx="18" fill="#0d1723" />
  <circle cx="32" cy="32" r="23" fill="none" stroke="#e1c384" stroke-width="2" />
  <path d="M23 17h11.5c7 0 11.5 3.4 11.5 9 0 3.8-2.1 6.5-5.5 7.8 4.4 1.1 7 4.1 7 8.6C47.5 49 42 53 34 53H23V17Zm10.5 14c4.2 0 6.5-1.5 6.5-4.5S37.7 22 33.5 22H29v9h4.5Zm.8 17c4.7 0 7.2-1.9 7.2-5.7 0-3.7-2.5-5.6-7.2-5.6H29V48h5.3Z" fill="#f4efe3" />
</svg>
